<?xml version="1.0" encoding="utf-8"?>
<!-- Generator: Adobe Illustrator 18.1.1, SVG Export Plug-In . SVG Version: 6.00 Build 0)  -->
<svg version="1.1" id="Layer_1" xmlns="http://www.w3.org/2000/svg" xmlns:xlink="http://www.w3.org/1999/xlink" x="0px" y="0px"
	 viewBox="0 0 1267.2 400" enable-background="new 0 0 1267.2 400" xml:space="preserve">
<g>
	<g>
		<g>
			<path fill="#FFFFFF" d="M318,11.4c4.6,0.3,8.6,0.5,12,0.6c3.4,0.1,6.4,0.2,9.2,0.2c8.2,0,15.2-0.1,20.9-0.4
				c5.7-0.3,9.7-0.7,12-1.3l72.6,123.4l69.8-123.4c1.1,0.3,3.1,0.5,5.7,0.8c2.7,0.2,5.7,0.4,9,0.5c3.3,0.1,6.8,0.3,10.4,0.3
				c3.6,0.1,6.9,0.1,9.9,0.1c5,0,9.3-0.1,12.6-0.2c3.4-0.1,7.4-0.4,12-0.6v288.2h-17.3c-4.3,0-8.5,0-12.5,0.1c-4,0.1-7.7,0.2-11,0.3
				c-3.3,0.1-6.2,0.3-8.6,0.4c-2.5,0.1-4.3,0.3-5.6,0.4V103.7l-72.8,130.1l-73-119.7V301c-1.3-0.1-3.2-0.3-5.6-0.4
				c-2.5-0.1-5.3-0.3-8.6-0.4c-3.3-0.1-7-0.3-11-0.3c-4-0.1-8.2-0.1-12.5-0.1H318V11.4z"/>
			<path fill="#FFFFFF" d="M653.2,11.4c3.6,0.1,6.6,0.3,9,0.4c2.4,0.1,4.6,0.3,6.7,0.3c2.1,0.1,4.2,0.1,6.5,0.1c2.2,0,4.9,0,7.9,0
				c4.8,0,9.5-0.1,14.4-0.4c4.8-0.3,8.4-0.7,10.7-1.3V301c-1.3-0.1-3.2-0.3-5.6-0.4c-2.5-0.1-5.3-0.3-8.6-0.4c-3.3-0.1-7-0.3-11-0.3
				c-4-0.1-8.2-0.1-12.5-0.1h-17.3V11.4z"/>
			<path fill="#FFFFFF" d="M787.3,11c1.1,0.3,4.2,0.6,9.2,0.9c5,0.3,10.9,0.4,17.8,0.4c3,0,6.6-0.1,10.8-0.2
				c4.2-0.1,9.9-0.4,17.3-0.6v236.4h57.7c2.2,0,4.8,0,7.8-0.1c3-0.1,6.1-0.2,9.1-0.3c3-0.1,5.8-0.3,8.4-0.4c2.6-0.1,4.5-0.3,5.8-0.4
				l-0.9,26.4c-0.1,3.3-0.3,6.6-0.3,9.9c-0.1,3.3-0.1,6.3-0.2,8.9c-0.1,2.6-0.1,4.8-0.1,6.5c0,1.7,0,2.7,0,3
				c-4-0.3-8.2-0.5-12.6-0.8c-4.4-0.2-9.3-0.4-14.7-0.4c-5.4-0.1-11.5-0.1-18.3-0.2c-6.8-0.1-14.6-0.1-23.3-0.1h-35.7
				c-4.3,0-8.5,0-12.5,0.1c-4,0.1-7.7,0.2-11,0.3c-3.3,0.1-6.2,0.3-8.6,0.4c-2.5,0.1-4.3,0.3-5.6,0.4V11z"/>
			<path fill="#FFFFFF" d="M972.3,162c0-20.6,3.6-40.3,10.7-59c7.1-18.7,17.3-35.2,30.5-49.5s29.1-25.6,47.6-34
				c18.6-8.4,39.4-12.6,62.4-12.6c18.9,0,37,3.2,54.3,9.5c17.4,6.3,32.7,15.7,45.9,28.1c13.2,12.4,23.8,27.7,31.7,45.8
				c7.8,18.2,11.8,39,11.8,62.7c0,15.1-1.8,29.4-5.5,42.8c-3.7,13.4-8.9,25.7-15.6,36.9c-6.7,11.2-14.7,21.4-23.9,30.4
				c-9.2,9-19.4,16.6-30.5,22.8c-11.1,6.2-22.9,11-35.4,14.3c-12.5,3.3-25.4,5-38.7,5c-20.3,0-39.3-3.5-56.9-10.4
				c-17.6-6.9-33-16.6-46.1-29.2c-13.1-12.5-23.4-27.6-31-45.2C976.1,202.8,972.3,183.4,972.3,162z M1028.1,159.7
				c0,13.4,2.5,25.8,7.5,37.3c5,11.5,11.7,21.4,20.2,29.7c8.5,8.4,18.5,14.9,30,19.6c11.5,4.7,23.8,7,36.9,7c12.4,0,24-2.2,34.9-6.6
				c10.9-4.4,20.3-10.7,28.3-19c8-8.3,14.3-18.3,18.9-30.1c4.6-11.8,6.9-25.1,6.9-39.8c0-13-2.1-25.3-6.3-37.2
				c-4.2-11.8-10.3-22.2-18.3-31.2c-8-9-17.7-16.2-29.2-21.5c-11.5-5.3-24.4-8-38.8-8c-14.1,0-26.8,2.7-38,8.1
				c-11.2,5.4-20.8,12.7-28.7,21.8c-7.9,9.1-14,19.8-18.2,31.9C1030.1,133.7,1028.1,146.4,1028.1,159.7z"/>
		</g>
	</g>
	<g>
		<g>
			<path fill="#FFFFFF" d="M312.1,333.5h20c6.8,0,9.7,0.6,12.2,1.5c6.7,2.5,11,9.1,11,17.7c0,8.3-4.6,15.4-11.8,17.7v0.2
				c0,0,0.7,0.8,1.9,3l13.9,25.4h-10.4l-13.8-26h-14v26h-9.2V333.5z M334.4,364.9c7.1,0,11.6-4.5,11.6-11.8c0-4.8-1.9-8.2-5.2-10.1
				c-1.8-0.9-3.9-1.5-9-1.5h-10.5v23.4H334.4z"/>
			<path fill="#FFFFFF" d="M371.5,333.5h37.9v8h-28.8V362H404v8h-23.4v21H411v8h-39.5V333.5z"/>
			<path fill="#FFFFFF" d="M456.9,380.1h-24.6l-6.5,18.8h-9.4l23.5-65.3h9.6l23.5,65.3h-9.5L456.9,380.1z M444.6,342.5
				c0,0-1.5,5.9-2.6,9.3l-7.3,20.7h19.8l-7.2-20.7c-1.1-3.3-2.5-9.3-2.5-9.3H444.6z"/>
			<path fill="#FFFFFF" d="M482.6,333.5h9.2v57.4H521v8h-38.4V333.5z"/>
			<path fill="#FFFFFF" d="M569.3,341.5h-22.4v-8h53.9v8h-22.4v57.4h-9.2V341.5z"/>
			<path fill="#FFFFFF" d="M610.2,333.5h9.2v65.3h-9.2V333.5z"/>
			<path fill="#FFFFFF" d="M640.4,333.5h9.6l15,35.3c1.5,3.6,3.2,8.8,3.2,8.8h0.2c0,0,1.8-5.2,3.2-8.8l15-35.3h9.6l5.3,65.3h-9.1
				l-3.2-41.2c-0.3-4-0.1-9.6-0.1-9.6H689c0,0-1.9,6-3.5,9.6l-13,29.4h-8.1l-13-29.4c-1.5-3.5-3.5-9.8-3.5-9.8h-0.2
				c0,0,0.1,5.8-0.2,9.8l-3.1,41.2h-9.2L640.4,333.5z"/>
			<path fill="#FFFFFF" d="M717.3,333.5h37.9v8h-28.8V362h23.4v8h-23.4v21h30.3v8h-39.5V333.5z"/>
			<path fill="#FFFFFF" d="M826.5,380.1h-24.6l-6.5,18.8H786l23.5-65.3h9.6l23.5,65.3H833L826.5,380.1z M814.2,342.5
				c0,0-1.5,5.9-2.6,9.3l-7.3,20.7h19.8l-7.2-20.7c-1.1-3.3-2.5-9.3-2.5-9.3H814.2z"/>
			<path fill="#FFFFFF" d="M852.2,333.5h9.1l29.1,42.5c2.4,3.5,5.5,9.4,5.5,9.4h0.2c0,0-0.6-5.8-0.6-9.4v-42.5h9.2v65.3h-9
				l-29.1-42.4c-2.4-3.6-5.5-9.5-5.5-9.5h-0.2c0,0,0.6,5.8,0.6,9.5v42.4h-9.2V333.5z"/>
			<path fill="#FFFFFF" d="M954.6,380.1H930l-6.5,18.8h-9.4l23.5-65.3h9.6l23.5,65.3h-9.5L954.6,380.1z M942.3,342.5
				c0,0-1.5,5.9-2.6,9.3l-7.3,20.7h19.8l-7.2-20.7c-1.1-3.3-2.5-9.3-2.5-9.3H942.3z"/>
			<path fill="#FFFFFF" d="M980.4,333.5h9.2v57.4h29.2v8h-38.4V333.5z"/>
			<path fill="#FFFFFF" d="M1038.5,371.2l-21.9-37.7h10.4L1039,355c2,3.6,4,8.2,4,8.2h0.2c0,0,1.9-4.5,4-8.2l11.9-21.5h10.4
				l-21.8,37.7v27.7h-9.2V371.2z"/>
			<path fill="#FFFFFF" d="M1095.2,341.5h-22.4v-8h53.9v8h-22.4v57.4h-9.2V341.5z"/>
			<path fill="#FFFFFF" d="M1136.1,333.5h9.2v65.3h-9.2V333.5z"/>
			<path fill="#FFFFFF" d="M1191.8,332.4c15.7,0,23.8,8.6,23.8,8.6l-4.5,6.8c0,0-7.6-7.1-18.9-7.1c-14.6,0-24.1,11.1-24.1,25
				c0,14,9.7,25.8,24.2,25.8c12.3,0,20.2-8.5,20.2-8.5l4.9,6.6c0,0-9,10.4-25.4,10.4c-19.6,0-33.4-15-33.4-34.1
				C1158.6,346.9,1172.9,332.4,1191.8,332.4z"/>
			<path fill="#FFFFFF" d="M1230,384.4c0,0,6.9,7,16.7,7c6.1,0,11.3-3.4,11.3-9.6c0-14.2-31.6-11.1-31.6-31.2
				c0-10.2,8.8-18.2,21.1-18.2c12.1,0,18.5,6.6,18.5,6.6l-4.2,7.6c0,0-6-5.6-14.3-5.6c-6.9,0-11.8,4.4-11.8,9.5
				c0,13.5,31.6,9.9,31.6,31.1c0,10.1-7.8,18.4-20.7,18.4c-13.9,0-21.7-8.6-21.7-8.6L1230,384.4z"/>
		</g>
	</g>
	<g>
		<path fill="#FFFFFF" d="M23.2,20c0.6,0,5.8,0.2,12.8,7.2c6.1,6.1,14.5,14.3,21.8,21.5c6.7,6.6,13,12.8,16.4,16.2l9.5,9.6l12.4-5.2
			c13-5.5,26.8-8.2,41.2-8.2c11.3,0,21.9,1.7,32.4,5.2l11.8,3.9l8.7-8.9c6.8-6.9,24.9-25.2,33.7-34c4.1-4.1,6.6-5.9,8.1-6.5
			c0.1,0.6,0,1.5,0,2.5v143.3v20.6h5.6c-2.7,23-10.9,43.7-23.4,57.6l-12.1,13.3l12.2,13.6l12,13.5H138c-27.8,0-55.7-12.3-76.4-33.3
			c-19.3-19.5-31.1-45.6-32.5-71.9l-1-18.8H20V23.2C20,20.7,22.2,20,23.2,20 M23.2,0C10.9,0,0,9.8,0,23.2v157.9h9.2
			c1.6,31,15.3,61.9,38.2,85.1c24.5,24.7,57.5,38.9,90.6,38.9h133.5l-42.8-47c19.9-22.2,29.2-55.6,29.2-89.1v-1.9h-6V23.2
			c0-13.2-6.8-22.8-18.9-22.8c-5.8,0-13,2.2-23.5,12.7c-8.9,8.9-27,27.2-33.8,34.1C163.3,43,150.6,41,137.2,41
			c-16.9,0-33.4,3.3-48.9,9.8c-7.2-7.2-26.6-26.1-38.2-37.7C39.3,2.3,29.1,0,23.2,0L23.2,0z"/>
	</g>
</g>
</svg>
