<?xml version="1.0" encoding="utf-8"?>
<!-- Generator: Adobe Illustrator 18.0.0, SVG Export Plug-In . SVG Version: 6.00 Build 0)  -->
<!DOCTYPE svg PUBLIC "-//W3C//DTD SVG 1.1//EN" "http://www.w3.org/Graphics/SVG/1.1/DTD/svg11.dtd">
<svg version="1.1" id="Layer_1" xmlns="http://www.w3.org/2000/svg" xmlns:xlink="http://www.w3.org/1999/xlink" x="0px" y="0px"
	 viewBox="0 0 140 30" enable-background="new 0 0 140 30" xml:space="preserve">
<g>
	<g opacity="0.8">
		<path fill="#FFFFFF" d="M13.3,18c0,3.6-1.5,5.6-5.1,5.6c-1.2,0-2.8-0.2-3.8-0.4v6.2L0,30V8.2h3.5L4,9.5C5,8.8,7,7.9,8.6,7.9
			c3.1,0,4.8,1.9,4.8,5.6V18z M4.4,19.4c0.8,0.2,1.9,0.4,2.8,0.4c1.2,0,1.6-0.7,1.6-1.7v-4.5c0-1-0.4-1.7-1.6-1.7
			c-1,0-2.2,0.6-2.8,1.2V19.4z"/>
		<path fill="#FFFFFF" d="M22.8,23.3l-0.3-1c-1.7,1-3.3,1.3-4.3,1.3c-2.8,0-3.9-2-3.9-4.6c0-3,1.4-4.2,4.5-4.2H22v-1.1
			c0-1.5-0.3-2.1-2.7-2.1c-1.3,0-2.7,0.2-4.1,0.4l-0.6-3.3c1.4-0.4,3.7-0.7,5.4-0.7c5.2,0,6.4,1.6,6.4,5.7v9.6H22.8z M22,17.9h-2.1
			c-1,0-1.3,0.2-1.3,1.1c0,0.8,0.3,1.2,1.2,1.2c0.9,0,1.6-0.2,2.3-0.5V17.9z"/>
		<path fill="#FFFFFF" d="M27.5,13.5c0-3.6,1.5-5.6,5.1-5.6c1.2,0,2.8,0.2,3.8,0.4V2.1l4.5-0.6v21.8h-3.5l-0.5-1.2
			c-1.1,0.7-3,1.5-4.6,1.5c-3.1,0-4.8-1.9-4.8-5.6V13.5z M36.4,12.2c-0.8-0.2-1.9-0.4-2.8-0.4c-1.2,0-1.6,0.7-1.6,1.7V18
			c0,1,0.4,1.7,1.6,1.7c1,0,2.2-0.6,2.8-1.2V12.2z"/>
		<path fill="#FFFFFF" d="M46.7,17.3v0.4c0,1.7,0.7,2.2,2.7,2.2c1.4,0,3.2-0.2,4.6-0.6l0.7,3.3c-1.4,0.5-3.6,1-5.7,1
			c-4.9,0-6.7-2.4-6.7-6.1V14c0-3.2,1.5-6,6.5-6c5,0,6.1,3,6.1,6.2v3.2H46.7z M50.6,13.3c0-1-0.3-1.9-1.9-1.9c-1.5,0-2,0.9-2,1.9V14
			h3.9V13.3z"/>
		<path fill="#FFFFFF" d="M65,23.3v-10c0-0.7-0.3-1.1-1.1-1.1c-0.8,0-2.3,0.6-3.2,1.1v10h-4.4v-15h3.3L60,9.4c1.9-0.9,4.3-1.5,6-1.5
			c1.3,0,2.2,0.5,2.7,1.5c1.7-0.8,4-1.5,6-1.5c2.6,0,3.5,1.9,3.5,4.8v10.5h-4.5v-10c0-0.7-0.3-1.1-1.1-1.1c-0.8,0-2.3,0.6-3.2,1.1
			v10H65z"/>
		<path fill="#FFFFFF" d="M79.4,17.5V14c0-3.1,1.5-6.1,6.8-6.1c5.3,0,6.8,3,6.8,6.1v3.5c0,3.1-1.5,6.1-6.8,6.1
			C80.9,23.6,79.4,20.6,79.4,17.5z M88.6,17.6v-3.7c0-1.4-0.7-2.2-2.3-2.2c-1.6,0-2.3,0.8-2.3,2.2v3.7c0,1.4,0.7,2.2,2.3,2.2
			C87.8,19.9,88.6,19.1,88.6,17.6z"/>
		<path fill="#FFFFFF" d="M100.5,23.6c-1.6,0-4-0.2-6.1-0.5v-21l4.5-0.6v7.3c1.2-0.5,2.6-0.8,4.3-0.8c3.3,0,4.6,2.1,4.6,5.4v3.9
			C107.8,20.9,106.7,23.6,100.5,23.6z M98.9,19.7c0.6,0.1,1.2,0.1,1.8,0.1c2.2,0,2.6-1,2.6-2.4v-3.9c0-1-0.4-1.6-1.6-1.6
			c-1,0-2,0.4-2.8,0.8V19.7z"/>
		<path fill="#FFFFFF" d="M109.1,6.4V1.6h4.5v4.7H109.1z M109.1,23.3v-15h4.5v15H109.1z"/>
		<path fill="#FFFFFF" d="M115.8,23.3V2.1l4.4-0.6v21.8H115.8z"/>
		<path fill="#FFFFFF" d="M126,17.3v0.4c0,1.7,0.7,2.2,2.7,2.2c1.4,0,3.2-0.2,4.6-0.6l0.6,3.3c-1.4,0.5-3.6,1-5.7,1
			c-4.9,0-6.7-2.4-6.7-6.1V14c0-3.2,1.5-6,6.5-6c5,0,6.1,3,6.1,6.2v3.2H126z M129.9,13.3c0-1-0.3-1.9-1.9-1.9c-1.5,0-2,0.9-2,1.9V14
			h3.9V13.3z"/>
		<path fill="#FFFFFF" d="M139.2,8.6c-0.5,0.5-1.2,0.8-2,0.8c-0.8,0-1.4-0.3-2-0.8c-0.5-0.5-0.8-1.2-0.8-2c0-0.8,0.3-1.4,0.8-2
			c0.5-0.5,1.2-0.8,1.9-0.8c0.8,0,1.4,0.3,2,0.8c0.5,0.5,0.8,1.2,0.8,2C140,7.4,139.7,8,139.2,8.6z M135.5,4.9
			c-0.5,0.5-0.7,1-0.7,1.7c0,0.7,0.2,1.2,0.7,1.7c0.5,0.5,1,0.7,1.7,0.7c0.7,0,1.2-0.2,1.7-0.7c0.5-0.5,0.7-1,0.7-1.7
			c0-0.7-0.2-1.2-0.7-1.7c-0.5-0.5-1-0.7-1.7-0.7C136.6,4.2,136,4.5,135.5,4.9z M137.2,5.1c0.4,0,0.7,0,0.8,0.1
			c0.3,0.1,0.5,0.4,0.5,0.8c0,0.3-0.1,0.5-0.3,0.6c-0.1,0.1-0.3,0.1-0.4,0.1c0.2,0,0.4,0.1,0.5,0.3c0.1,0.2,0.2,0.3,0.2,0.5v0.2
			c0,0.1,0,0.1,0,0.2c0,0.1,0,0.1,0,0.2l0,0H138c0,0,0,0,0,0c0,0,0,0,0,0l0-0.1V7.7c0-0.4-0.1-0.6-0.3-0.7c-0.1-0.1-0.3-0.1-0.6-0.1
			h-0.4v1.2h-0.5v-3H137.2z M137.8,5.6c-0.1-0.1-0.4-0.1-0.7-0.1h-0.5v1.1h0.5c0.2,0,0.4,0,0.5-0.1c0.2-0.1,0.3-0.2,0.3-0.5
			C138,5.8,137.9,5.6,137.8,5.6z"/>
	</g>
	<g opacity="0.5">
		<path fill="#FFFFFF" d="M0.3,5.1V0.9h2.2c0.9,0,1.2,0.6,1.2,1.4c0,0.7-0.3,1.4-1.2,1.4H1.1v1.4H0.3z M2.3,3.1
			c0.3,0,0.5-0.2,0.5-0.7c0-0.5-0.2-0.8-0.5-0.8H1.1v1.5H2.3z"/>
		<path fill="#FFFFFF" d="M4.2,3.6C4.2,2.3,4.7,2,5.6,2c1,0,1.5,0.4,1.5,1.6c0,1.3-0.5,1.6-1.5,1.6C4.6,5.2,4.2,4.8,4.2,3.6z
			 M4.9,3.6c0,0.9,0.2,1,0.7,1c0.5,0,0.7-0.2,0.7-1c0-0.9-0.2-1-0.7-1C5.1,2.6,4.9,2.7,4.9,3.6z"/>
		<path fill="#FFFFFF" d="M9.3,5.1H8.4C8.1,4.1,7.8,3,7.4,2h0.8c0.3,0.7,0.5,1.5,0.7,2.3C9.1,3.7,9.4,2.6,9.6,2h0.7
			c0.2,0.6,0.5,1.7,0.6,2.3c0.3-0.8,0.5-1.5,0.7-2.3h0.8c-0.3,1-0.7,2.1-1.1,3.1h-0.9c-0.1-0.6-0.4-1.6-0.5-2.1
			C9.8,3.7,9.5,4.6,9.3,5.1z"/>
		<path fill="#FFFFFF" d="M15.3,5c-0.3,0.1-0.8,0.2-1.1,0.2c-0.9,0-1.5-0.4-1.5-1.6c0-1.2,0.5-1.6,1.4-1.6c1,0,1.4,0.3,1.3,1.8h-2
			c0,0.7,0.3,0.8,0.8,0.8c0.2,0,0.6-0.1,0.9-0.1L15.3,5z M13.5,3.2h1.3c0-0.5-0.2-0.7-0.6-0.7C13.7,2.5,13.6,2.7,13.5,3.2z"/>
		<path fill="#FFFFFF" d="M16.2,2h0.8v0.2C17,2.1,17.3,2,17.7,2c0.1,0,0.2,0,0.3,0v0.7c-0.1,0-0.3,0-0.4,0c-0.4,0-0.7,0.1-0.7,0.3
			v2.1h-0.8V2z"/>
		<path fill="#FFFFFF" d="M20.9,5c-0.3,0.1-0.8,0.2-1.1,0.2c-0.9,0-1.5-0.4-1.5-1.6c0-1.2,0.5-1.6,1.4-1.6c1,0,1.4,0.3,1.3,1.8h-2
			c0,0.7,0.3,0.8,0.8,0.8c0.2,0,0.6-0.1,0.9-0.1L20.9,5z M19.2,3.2h1.3c0-0.5-0.2-0.7-0.6-0.7C19.4,2.5,19.2,2.7,19.2,3.2z"/>
		<path fill="#FFFFFF" d="M24.5,5c-0.3,0.1-0.9,0.2-1.3,0.2c-1,0-1.5-0.4-1.5-1.6C21.7,2.3,22.2,2,23,2c0.4,0,0.6,0.1,0.7,0.2V0.8
			h0.7V5z M23.8,2.9c0-0.2-0.3-0.3-0.6-0.3c-0.5,0-0.7,0.2-0.7,1c0,0.8,0.2,1,0.7,1c0.2,0,0.4,0,0.6-0.1V2.9z"/>
		<path fill="#FFFFFF" d="M27,0.8h0.7v1.4C27.9,2.1,28.2,2,28.5,2c0.9,0,1.3,0.4,1.3,1.6c0,1.3-0.5,1.6-1.5,1.6
			c-0.4,0-1-0.1-1.3-0.2V0.8z M27.7,4.5c0.2,0.1,0.4,0.1,0.6,0.1c0.5,0,0.7-0.1,0.7-1c0-0.8-0.2-1-0.7-1c-0.3,0-0.6,0.1-0.6,0.3V4.5
			z"/>
		<path fill="#FFFFFF" d="M30.1,2h0.8c0.3,0.7,0.6,1.5,0.8,2.3C32,3.6,32.2,2.8,32.4,2h0.8c-0.3,1.1-0.7,2.2-1.2,3.2
			c-0.1,0.3-0.3,0.7-0.5,1h-0.8c0.2-0.3,0.4-0.7,0.5-1C30.9,4.2,30.5,3,30.1,2z"/>
	</g>
</g>
</svg>
